#!OML:ASF H:\Male1\Project 1\Capture day 1\Session 1\Male1.ASF
:FULLY-SPECIFIED
:DEGREES
779
root 32.29 15.486 -0.0495438 -887.9 94.7968 1277.69
lowerback 3.42535 2.1718 -0.37104
upperback 3.83977 3.011 -2.00811
thorax 2.1164 1.56636 -1.89677
lowerneck -9.49812 4.74408 7.8843
upperneck 13.2159 5.75323 -3.02657
head 5.88053 3.00343 -1.77031
rclavicle 4.69629e-014 -1.31198e-014
rhumerus -32.838 0.973977 -90.8501
rradius 35.7822
rwrist -26.4723
rhand -17.9769 -6.51097
rfingers 7.12502
rthumb 8.29266 -36.3282
lclavicle 4.69629e-014 -1.31198e-014
lhumerus -36.2977 -2.16003 86.6728
lradius 35.5188
lwrist 9.24852
lhand -23.8523 15.2309
lfingers 7.12502
lthumb 2.62005 45.1945
rfemur 8.72528 5.24093 19.1179
rtibia 38.6518
rfoot -10.7858 -14.2825
rtoes -38.7831
lfemur -8.04701 -18.6627 -20.3127
ltibia 19.8635
lfoot -11.304 21.4627
ltoes -0.275223
780
root 32.0878 15.4601 0.0213183 -876.677 94.5357 1288.84
lowerback 3.47266 2.07629 -0.944254
upperback 3.83197 2.87826 -2.15076
thorax 2.0575 1.48967 -1.72376
lowerneck -9.00978 4.93793 8.1617
upperneck 12.8718 6.10449 -3.68469
head 5.73728 3.14221 -2.00511
rclavicle -2.60656e-014 3.10104e-014
rhumerus -32.6179 1.55127 -91.151
rradius 36.5812
rwrist -27.7563
rhand -17.8916 -6.77187
rfingers 7.12502
rthumb 8.37494 -36.5858
lclavicle -2.60656e-014 3.10104e-014
lhumerus -37.2383 -1.36414 86.3886
lradius 36.0607
lwrist 9.46364
lhand -23.7889 14.4189
lfingers 7.12502
lthumb 2.6812 44.3818
rfemur 10.1629 5.36226 19.0456
rtibia 35.4267
rfoot -13.9094 -15.2958
rtoes -35.782
lfemur -9.21974 -18.9055 -20.5546
ltibia 20.2213
lfoot -10.2153 21.3894
ltoes -0.723043
781
root 31.8709 15.4397 0.0925304 -872.78 93.9982 1292.65
lowerback 3.75345 1.97337 -0.709235
upperback 3.80524 2.7371 -2.08616
thorax 1.87696 1.42349 -1.79825
lowerneck -9.58831 4.73525 7.71039
upperneck 13.3143 5.81252 -3.36048
head 5.93359 2.99965 -1.84042
rclavicle -9.69075e-015 -9.93923e-015
rhumerus -32.378 2.07919 -91.4225
rradius 37.4797
rwrist -29.1101
rhand -18.0204 -8.15528
rfingers 7.12502
rthumb 8.25067 -37.9742
lclavicle -9.69075e-015 -9.93923e-015
lhumerus -38.1464 -0.722705 86.1819
lradius 36.54
lwrist 9.16738
lhand -23.5841 14.4728
lfingers 7.12502
lthumb 2.87901 44.4331
rfemur 11.418 5.17581 19.783
rtibia 32.2593
rfoot -15.7915 -17.1562
rtoes -36.4526
lfemur -10.4371 -19.3244 -19.918
ltibia 20.4359
lfoot -9.55902 21.3747
ltoes -2.40852
782
root 31.6476 15.425 0.161603 -873.709 93.4101 1291.6
lowerback 4.06909 1.90424 -0.135031
upperback 3.785 2.64714 -1.88636
thorax 1.69323 1.38721 -1.92484
lowerneck -9.77372 4.59227 7.56235
upperneck 13.3602 5.65993 -3.59015
head 5.97233 2.89929 -1.89902
rclavicle -4.23908e-014 2.62396e-014
rhumerus -32.0468 2.60506 -91.5798
rradius 38.299
rwrist -30.1275
rhand -18.3127 -8.41094
rfingers 7.12502
rthumb 7.96858 -38.2407
lclavicle -4.23908e-014 2.62396e-014
lhumerus -39.0361 -0.0519437 86.0481
lradius 36.9449
lwrist 8.26485
lhand -23.2642 15.1921
lfingers 7.12502
lthumb 3.18791 45.148
rfemur 12.2988 4.87924 20.8395
rtibia 29.3794
rfoot -17.3944 -18.9057
rtoes -32.0889
lfemur -11.6466 -20.0153 -18.8522
ltibia 20.4536
lfoot -9.16158 21.6533
ltoes -3.2381
783
root 31.4201 15.414 0.231744 -877.04 92.7808 1288.15
lowerback 4.46981 1.80427 0.476832
upperback 3.74125 2.52074 -1.63395
thorax 1.43506 1.33106 -2.02077
lowerneck -10.0715 4.61224 7.37091
upperneck 13.6766 5.71955 -3.68522
head 6.12314 2.91132 -1.88508
rclavicle -1.38155e-014 4.77083e-015
rhumerus -31.7115 3.21435 -91.7129
rradius 39.0227
rwrist -30.7306
rhand -18.0405 -7.33577
rfingers 7.12502
rthumb 8.23122 -37.1554
lclavicle -1.38155e-014 4.77083e-015
lhumerus -39.6616 0.353157 86.0202
lradius 36.6505
lwrist 7.35272
lhand -22.9568 15.3468
lfingers 7.12502
lthumb 3.48479 45.2981
rfemur 12.8203 4.54033 21.9391
rtibia 26.8838
rfoot -19.4927 -19.9369
rtoes -28.2582
lfemur -12.8706 -20.6666 -17.6419
ltibia 20.4653
lfoot -8.94848 21.8688
ltoes -4.35666
784
root 31.1907 15.4044 0.303271 -877.338 92.0586 1287.83
lowerback 4.95602 1.6523 0.892941
upperback 3.73789 2.32947 -1.39135
thorax 1.15964 1.23888 -2.01601
lowerneck -10.0226 4.54935 7.34713
upperneck 13.6109 5.69266 -4.03174
head 6.10102 2.87134 -1.99535
rclavicle 3.44394e-014 -8.74653e-015
rhumerus -31.407 3.98738 -91.8471
rradius 39.6869
rwrist -31.3687
rhand -17.8843 -7.39549
rfingers 7.12502
rthumb 8.38195 -37.2092
lclavicle 3.44394e-014 -8.74653e-015
lhumerus -40.0572 0.812269 85.9259
lradius 35.9712
lwrist 5.63454
lhand -22.0724 15.3264
lfingers 7.12502
lthumb 4.33888 45.2619
rfemur 13.0521 4.07927 22.8073
rtibia 24.9118
rfoot -21.4069 -20.2345
rtoes -30.0398
lfemur -13.9277 -21.0616 -16.6474
ltibia 20.3955
lfoot -8.96479 21.6948
ltoes -6.1841
785
root 30.9641 15.3914 0.369241 -873.44 91.5291 1291.85
lowerback 5.43647 1.55157 1.14053
upperback 3.85202 2.2119 -1.19601
thorax 1.00681 1.18456 -1.96359
lowerneck -10.0605 4.54641 7.15537
upperneck 13.6194 5.71664 -4.03097
head 6.10554 2.87274 -1.9613
rclavicle -2.60159e-014 1.25234e-014
rhumerus -31.0524 4.91224 -91.9584
rradius 40.2035
rwrist -32.2041
rhand -18.3731 -7.28578
rfingers 7.12502
rthumb 7.91028 -37.1178
lclavicle -2.60159e-014 1.25234e-014
lhumerus -40.1485 1.45406 85.7143
lradius 34.8624
lwrist 2.99033
lhand -20.6757 15.3566
lfingers 7.12502
lthumb 5.68744 45.2602
rfemur 13.1201 3.7859 23.3924
rtibia 23.4698
rfoot -22.3045 -20.9583
rtoes -28.3205
lfemur -14.6944 -21.3606 -15.9693
ltibia 20.2226
lfoot -9.68596 21.466
ltoes -7.38106
786
root 30.7395 15.3784 0.430246 -867.212 91.3336 1298.23
lowerback 5.957 1.55365 1.25357
upperback 3.98439 2.23111 -1.07751
thorax 0.854803 1.19815 -1.92089
lowerneck -10.0487 4.57873 7.05069
upperneck 13.5256 5.78448 -4.09989
head 6.07645 2.8942 -1.96098
rclavicle -2.06115e-014 3.77691e-015
rhumerus -30.7063 5.62324 -91.9923
rradius 40.6573
rwrist -32.6824
rhand -18.3917 -6.45366
rfingers 7.12502
rthumb 7.89228 -36.2863
lclavicle -2.06115e-014 3.77691e-015
lhumerus -40.0677 2.13724 85.4336
lradius 33.3486
lwrist 0.63123
lhand -19.7484 14.4979
lfingers 7.12502
lthumb 6.58266 44.3756
rfemur 12.934 3.85651 23.7595
rtibia 22.602
rfoot -23.5131 -21.1266
rtoes -26.2806
lfemur -15.2529 -21.6375 -15.4881
ltibia 19.8711
lfoot -10.6827 21.4094
ltoes -8.54803
787
root 30.5203 15.3732 0.489966 -850.231 91.2262 1315.35
lowerback 6.39975 1.56718 1.22546
upperback 4.15233 2.26157 -1.03569
thorax 0.781233 1.21749 -1.8754
lowerneck -10.4151 4.39942 6.92361
upperneck 13.5736 5.56017 -4.27494
head 6.14216 2.76006 -2.00936
rclavicle -1.39398e-014 2.88238e-015
rhumerus -30.3154 5.9722 -91.874
rradius 41.0898
rwrist -32.673
rhand -17.913 -6.34832
rfingers 7.12502
rthumb 8.35428 -36.1631
lclavicle -1.39398e-014 2.88238e-015
lhumerus -39.7974 2.60324 85.1958
lradius 31.5634
lwrist -1.26041
lhand -19.074 13.2762
lfingers 7.12502
lthumb 7.23376 43.1326
rfemur 12.5576 3.79647 23.826
rtibia 22.0645
rfoot -24.3281 -21.2316
rtoes -25.4389
lfemur -15.7617 -21.748 -15.2783
ltibia 19.5885
lfoot -11.6761 21.2249
ltoes -9.55521
788
root 30.3073 15.3739 0.545246 -822.882 91.6339 1342.77
lowerback 6.66075 1.45358 0.684706
upperback 4.20824 2.08983 -1.162
thorax 0.672331 1.12504 -1.70054
lowerneck -10.7766 4.50793 8.23925
upperneck 13.9311 5.70338 -5.71086
head 6.40659 2.78502 -2.66065
rclavicle -1.963e-015 -7.05686e-015
rhumerus -30.1368 6.50139 -91.9376
rradius 41.3641
rwrist -32.4958
rhand -17.4807 -6.41047
rfingers 7.12502
rthumb 8.7715 -36.2082
lclavicle -1.963e-015 -7.05686e-015
lhumerus -39.6943 3.39029 84.599
lradius 29.7077
lwrist -3.61099
lhand -17.7918 12.8691
lfingers 7.12502
lthumb 8.47129 42.6792
rfemur 12.0606 3.50674 23.2971
rtibia 21.6185
rfoot -24.7602 -21.3342
rtoes -24.7515
lfemur -16.3336 -21.6547 -15.656
ltibia 19.5229
lfoot -12.4971 20.9695
ltoes -7.17394
